<?xml version="1.0" encoding="UTF-8" standalone="no"?>
<!DOCTYPE svg PUBLIC "-//W3C//DTD SVG 1.1//EN" "http://www.w3.org/Graphics/SVG/1.1/DTD/svg11.dtd">
<svg width="100%" height="100%" viewBox="0 0 192 164" version="1.1" xmlns="http://www.w3.org/2000/svg" xmlns:xlink="http://www.w3.org/1999/xlink" xml:space="preserve" xmlns:serif="http://www.serif.com/" style="fill-rule:evenodd;clip-rule:evenodd;stroke-linejoin:round;stroke-miterlimit:2;">
    <g transform="matrix(1,0,0,1,-1007.38,-676.043)">
        <g transform="matrix(1,0,0,1,767.157,-3.89492)">
            <g transform="matrix(1.37598,0,0,1.37598,-981.586,-210.355)">
                <path d="M957.419,673.134C970.206,652.147 995.779,652.147 1008.57,662.64C1021.35,673.134 1021.35,694.122 1008.57,715.109C999.615,730.85 976.599,746.59 957.419,757.084C938.24,746.59 915.224,730.85 906.273,715.109C893.486,694.122 893.486,673.134 906.273,662.64C919.06,652.147 944.633,652.147 957.419,673.134Z" style="fill:rgb(255,101,0);"/>
                <path d="M957.419,659.222C940.318,642.682 914.545,644.57 900.74,655.899C885.22,668.637 883.288,694.065 898.761,719.54C908.396,736.368 932.725,753.514 953.234,764.735C955.842,766.162 958.997,766.162 961.605,764.735C982.117,753.513 1006.45,736.363 1016.09,719.528C1031.55,694.063 1029.62,668.636 1014.1,655.899C1000.29,644.57 974.521,642.682 957.419,659.222ZM957.419,673.134C970.206,652.147 995.779,652.147 1008.57,662.64C1021.35,673.134 1021.35,694.122 1008.57,715.109C999.615,730.85 976.599,746.59 957.419,757.084C938.24,746.59 915.224,730.85 906.273,715.109C893.486,694.122 893.486,673.134 906.273,662.64C919.06,652.147 944.633,652.147 957.419,673.134Z"/>
            </g>
        </g>
    </g>
</svg>
