<?xml version="1.0" encoding="UTF-8" standalone="no"?><!DOCTYPE svg PUBLIC "-//W3C//DTD SVG 1.1//EN" "http://www.w3.org/Graphics/SVG/1.1/DTD/svg11.dtd"><svg width="100%" height="100%" viewBox="0 0 244 248" version="1.1" xmlns="http://www.w3.org/2000/svg" xmlns:xlink="http://www.w3.org/1999/xlink" xml:space="preserve" xmlns:serif="http://www.serif.com/" style="fill-rule:evenodd;clip-rule:evenodd;stroke-linejoin:round;stroke-miterlimit:2;"><g><g><path d="M21.033,86.262c-12.507,3.874 -21.033,15.441 -21.033,28.534c0,0 0,61.755 0,61.755c-0,16.498 13.374,29.872 29.872,29.872l152.028,-0c16.498,-0 29.873,-13.374 29.873,-29.872l-0,-108.85c-0,-9.49 -4.509,-18.415 -12.148,-24.046c-7.639,-5.63 -17.499,-7.296 -26.564,-4.488c-0,-0 -152.028,47.095 -152.028,47.095Zm3.551,11.462c-7.483,2.318 -12.584,9.239 -12.584,17.072l0,61.755c-0,9.87 8.002,17.872 17.872,17.872l152.028,-0c9.871,-0 17.873,-8.002 17.873,-17.872l-0,-108.85c-0,-5.677 -2.698,-11.017 -7.268,-14.386c-4.571,-3.369 -10.47,-4.366 -15.893,-2.686l-152.028,47.095Z"/><path d="M28.418,133.33l159.426,-31.586c3.491,-0.692 5.761,-4.083 5.069,-7.575c-0.691,-3.491 -4.083,-5.761 -7.574,-5.069l-159.426,31.586c-3.491,0.692 -5.761,4.083 -5.069,7.575c0.692,3.491 4.083,5.761 7.574,5.069Z"/><path d="M80.268,180.274l0,-82.421c0,-1.805 -2.885,-3.268 -6.445,-3.268c-3.559,0 -6.445,1.463 -6.445,3.268l0,82.421c0,1.805 2.886,3.268 6.445,3.268c3.56,0 6.445,-1.463 6.445,-3.268Z"/><path d="M148.653,183.251l-0,-107.312c-0,-2.351 -2.885,-4.256 -6.445,-4.256c-3.559,0 -6.445,1.905 -6.445,4.256l0,107.312c0,2.35 2.886,4.255 6.445,4.255c3.56,0 6.445,-1.905 6.445,-4.255Z"/><path d="M28.418,171.849l159.426,-31.586c3.491,-0.692 5.761,-4.083 5.069,-7.575c-0.691,-3.491 -4.083,-5.761 -7.574,-5.069l-159.426,31.586c-3.491,0.692 -5.761,4.083 -5.069,7.575c0.692,3.491 4.083,5.761 7.574,5.069Z"/></g><path d="M60.068,214.191c-9.135,-0 -16.551,7.416 -16.551,16.55c0,9.135 7.416,16.551 16.551,16.551c9.134,0 16.551,-7.416 16.551,-16.551c-0,-9.134 -7.417,-16.55 -16.551,-16.55Zm-0,24c-4.112,-0 -7.449,-3.338 -7.449,-7.45c-0,-4.111 3.337,-7.449 7.449,-7.449c4.111,0 7.449,3.338 7.449,7.449c0,4.112 -3.338,7.45 -7.449,7.45Z"/><path d="M169.574,214.191c-9.135,-0 -16.551,7.416 -16.551,16.55c0,9.135 7.416,16.551 16.551,16.551c9.134,0 16.551,-7.416 16.551,-16.551c-0,-9.134 -7.417,-16.55 -16.551,-16.55Zm-0,24c-4.112,-0 -7.449,-3.338 -7.449,-7.45c-0,-4.111 3.337,-7.449 7.449,-7.449c4.111,0 7.449,3.338 7.449,7.449c0,4.112 -3.338,7.45 -7.449,7.45Z"/><path d="M207.316,48.632l-0,-25.798c-0,-0 30.964,-7.985 30.964,-7.985c4.034,-1.04 6.461,-5.153 5.421,-9.188c-1.04,-4.034 -5.154,-6.46 -9.188,-5.42l-36.624,9.444c-3.331,0.859 -5.659,3.863 -5.659,7.304l-0,31.643c-0,4.166 3.377,7.544 7.543,7.544c4.166,-0 7.543,-3.378 7.543,-7.544Z"/></g></svg>