<?xml version="1.0" encoding="UTF-8" standalone="no"?>
<!DOCTYPE svg PUBLIC "-//W3C//DTD SVG 1.1//EN" "http://www.w3.org/Graphics/SVG/1.1/DTD/svg11.dtd">
<svg width="100%" height="100%" viewBox="0 0 672 427" version="1.1" xmlns="http://www.w3.org/2000/svg" xmlns:xlink="http://www.w3.org/1999/xlink" xml:space="preserve" xmlns:serif="http://www.serif.com/" style="fill-rule:evenodd;clip-rule:evenodd;stroke-linecap:round;stroke-linejoin:round;stroke-miterlimit:1.5;">
    <g transform="matrix(1,0,0,1,-2.64284,-569.238)">
        <g id="Artboard6" transform="matrix(1,0,0,1,2.64284,-3.89492)">
            <rect x="0" y="573.133" width="671.599" height="426.143" style="fill:none;"/>
            <g>
                <g>
                    <g transform="matrix(0.818489,0,0,1,44.4134,3.89492)">
                        <path d="M254.866,729.395C248.75,730.963 244.586,735.601 244.586,740.847L244.586,803.28C244.586,809.907 251.151,815.28 259.248,815.28L444.99,815.28C453.087,815.28 459.651,809.907 459.651,803.28L459.651,693.234C459.651,689.415 457.43,685.825 453.67,683.564C449.911,681.303 445.06,680.641 440.608,681.783L254.866,729.395ZM259.248,740.847L259.248,803.28L444.99,803.28L444.99,693.234L259.248,740.847Z"/>
                    </g>
                    <g>
                        <g transform="matrix(1,0,0,1.1157,-32.1619,-89.0421)">
                            <path d="M338.794,728.242L338.794,807.023" style="fill:none;stroke:black;stroke-width:11.33px;"/>
                        </g>
                        <g transform="matrix(1.42514,0,0,1.42514,-39.8895,-337.614)">
                            <path d="M286.812,734.803L286.812,803.28" style="fill:none;stroke:black;stroke-width:8.42px;"/>
                        </g>
                    </g>
                    <g transform="matrix(5.55112e-17,-1,2.40537,1.33525e-16,-1515.78,1068.63)">
                        <g transform="matrix(1,-1.55615e-18,-9.0036e-18,0.93257,3.05616,53.277)">
                            <path d="M270.63,730.509L295,803.28" style="fill:none;stroke:black;stroke-width:6.91px;"/>
                        </g>
                        <g transform="matrix(1,-5.30856e-18,-3.07144e-17,0.769973,45.5456,183.888)">
                            <path d="M252.51,715.142L295,803.28" style="fill:none;stroke:black;stroke-width:8.06px;"/>
                        </g>
                    </g>
                </g>
                <g transform="matrix(0.959642,0,0,1.03706,19.59,-37.708)">
                    <path d="M256.637,838.023L411.276,838.023" style="fill:none;stroke:black;stroke-width:12.01px;"/>
                </g>
                <g transform="matrix(0.488054,0,0,0.488054,156.433,438.323)">
                    <path d="M267.116,832.883C248.399,832.883 233.204,848.079 233.204,866.795C233.204,885.511 248.399,900.706 267.116,900.706C285.832,900.706 301.027,885.511 301.027,866.795C301.027,848.079 285.832,832.883 267.116,832.883ZM267.116,882.058C258.692,882.058 251.852,875.219 251.852,866.795C251.852,858.371 258.692,851.531 267.116,851.531C275.54,851.531 282.379,858.371 282.379,866.795C282.379,875.219 275.54,882.058 267.116,882.058Z"/>
                </g>
                <g transform="matrix(0.488054,0,0,0.488054,265.939,438.323)">
                    <path d="M267.116,832.883C248.399,832.883 233.204,848.079 233.204,866.795C233.204,885.511 248.399,900.706 267.116,900.706C285.832,900.706 301.027,885.511 301.027,866.795C301.027,848.079 285.832,832.883 267.116,832.883ZM267.116,882.058C258.692,882.058 251.852,875.219 251.852,866.795C251.852,858.371 258.692,851.531 267.116,851.531C275.54,851.531 282.379,858.371 282.379,866.795C282.379,875.219 275.54,882.058 267.116,882.058Z"/>
                </g>
                <g transform="matrix(1,0,0,1,-2.64284,3.89492)">
                    <path d="M416.91,693.234L416.91,661.591L453.534,652.147" style="fill:none;stroke:black;stroke-width:12px;"/>
                </g>
            </g>
        </g>
    </g>
</svg>
